<svg width="40" height="37" viewBox="0 0 40 37" fill="" xmlns="http://www.w3.org/2000/svg">
<path d="M29 0C25.52 0 22.18 1.62 20 4.18C17.82 1.62 14.48 0 11 0C4.84 0 0 4.84 0 11C0 18.56 6.8 24.72 17.1 34.08L20 36.7L22.9 34.06C33.2 24.72 40 18.56 40 11C40 4.84 35.16 0 29 0ZM20.2 31.1L20 31.3L19.8 31.1C10.28 22.48 4 16.78 4 11C4 7 7 4 11 4C14.08 4 17.08 5.98 18.14 8.72H21.88C22.92 5.98 25.92 4 29 4C33 4 36 7 36 11C36 16.78 29.72 22.48 20.2 31.1Z" fill=""/>
<path d="M19.9801 31.5L17.6601 29.4576C9.42007 22.2319 3 17.4663 3 11.6176C3 6.85206 5.55207 3.10767 10.4801 3.10767C13.2641 3.10767 18.2361 6.19723 19.9801 8.17773C21.7241 6.19723 26.6961 3.10767 29.4801 3.10767C34.4081 3.10767 36.5 6.85206 36.5 11.6176C36.5 17.4663 31 23 22.3001 29.4731L19.9801 31.5Z" fill=""/>
</svg>
